<?xml version="1.0" standalone="no"?>
<!DOCTYPE svg PUBLIC "-//W3C//DTD SVG 20010904//EN"
 "http://www.w3.org/TR/2001/REC-SVG-20010904/DTD/svg10.dtd">
<svg version="1.0" xmlns="http://www.w3.org/2000/svg"
 width="512.000000pt" height="512.000000pt" viewBox="0 0 512.000000 512.000000"
 preserveAspectRatio="xMidYMid meet">
<metadata>
Created by potrace 1.14, written by Peter Selinger 2001-2017
</metadata>
<g transform="translate(0.000000,512.000000) scale(0.100000,-0.100000)"
fill="#000000" stroke="none">
<path d="M0 2560 l0 -2560 2560 0 2560 0 0 2560 0 2560 -2560 0 -2560 0 0
-2560z m2271 1485 c595 -2 628 -3 710 -23 239 -58 418 -172 528 -338 45 -69
91 -188 113 -294 27 -131 21 -323 -16 -463 -29 -114 -98 -264 -160 -351 -88
-123 -247 -257 -364 -307 -204 -88 -508 -111 -702 -53 l-51 15 3 87 c3 86 3
87 28 84 14 -1 89 -5 166 -9 114 -4 158 -2 220 12 173 37 295 124 365 260 63
120 74 183 73 405 -1 228 -14 294 -90 449 -82 166 -202 262 -391 312 -86 23
-306 31 -416 16 l-57 -8 2 -1167 3 -1167 24 -58 c28 -70 70 -121 122 -148 45
-22 150 -49 196 -49 41 0 51 -19 59 -112 l7 -73 -577 0 -576 0 1 65 c2 108 4
112 84 126 118 20 159 44 195 115 39 76 41 128 38 1229 -3 982 -4 1068 -20
1108 -39 96 -88 132 -213 155 -80 14 -82 18 -84 130 l-1 68 79 -6 c43 -4 359
-8 702 -10z"/>
</g>
</svg>
